#!OML:ASF E:\emotionWalksFemale\Project 1\Capture day 1\Session 1\Female1.ASF
:FULLY-SPECIFIED
:DEGREES
219
root 9.01095 19.8441 8.37465 -176.799 -34.1835 -178.361
lowerback 16.7961 -2.57116 6.75345
upperback -2.05697 -1.74754 5.25317
thorax -11.8172 -1.18123 2.48945
lowerneck -8.80729 -4.42598 -5.57882
upperneck -7.80493 -5.93605 2.17411
head -0.74434 -3.07326 1.48493
rclavicle 8.7664e-014 1.74931e-014
rhumerus 17.1252 -14.2386 -24.5437
rradius 42.4811
rwrist 3.03791
rhand -15.0581 -40.2713
rfingers 7.12502
rthumb 11.1087 -429.957
lclavicle 8.7664e-014 1.74931e-014
lhumerus 52.5108 -29.7236 53.5055
lradius 85.5232
lwrist 31.2083
lhand -5.62924 -53.0133
lfingers 7.12502
lthumb 20.1887 -24.0424
rfemur -24.7778 30.3537 10.3736
rtibia 26.9512
rfoot 6.26245 -35.4784
rtoes 26.3842
lfemur -10.7273 -9.87252 -30.3424
ltibia 5.45148
lfoot -15.1192 30.3135
ltoes 60.0359
220
root 9.02447 19.6807 8.21005 -177.207 -35.5682 -177.742
lowerback 16.8172 -2.4529 7.43183
upperback -2.09063 -1.44704 5.34282
thorax -11.8842 -1.08881 2.13405
lowerneck -8.46561 -4.55167 -5.10745
upperneck -8.30443 -6.18116 1.97549
head -0.96902 -3.20631 1.3547
rclavicle -2.72335e-014 -7.95139e-014
rhumerus 12.8081 -14.207 -23.9995
rradius 41.0576
rwrist 5.87221
rhand -14.8508 -40.6686
rfingers 7.12502
rthumb 11.3087 -430.344
lclavicle -2.72335e-014 -7.95139e-014
lhumerus 52.4291 -34.9422 52.4969
lradius 86.0993
lwrist 28.7911
lhand -5.68158 -52.4926
lfingers 7.12502
lthumb 20.1384 -23.5164
rfemur -25.8369 32.0264 9.32324
rtibia 27.2232
rfoot 6.70904 -36.3435
rtoes 26.8075
lfemur -10.6736 -8.47584 -30.795
ltibia 4.12998
lfoot -11.3465 30.7895
ltoes 58.4296
221
root 9.03685 19.5131 8.044 -177.571 -37.0344 -177.162
lowerback 16.7237 -2.63908 7.84723
upperback -1.88085 -1.64108 5.95299
thorax -11.5918 -1.20422 2.62237
lowerneck -9.7439 -4.44556 -6.08661
upperneck -8.02725 -5.92928 1.93841
head -0.659164 -3.07596 1.47679
rclavicle -2.06736e-014 4.77083e-015
rhumerus 10.6169 -13.9752 -23.4015
rradius 38.8078
rwrist 8.63208
rhand -16.6705 -43.6528
rfingers 7.12502
rthumb 9.55324 -433.416
lclavicle -2.06736e-014 4.77083e-015
lhumerus 51.9344 -38.6889 52.0017
lradius 86.3553
lwrist 25.4436
lhand -6.03528 -53.4794
lfingers 7.12502
lthumb 19.7984 -24.4677
rfemur -26.6961 32.9251 8.38642
rtibia 27.3909
rfoot 8.2179 -36.1154
rtoes 25.8989
lfemur -10.9139 -7.1828 -31.3235
ltibia 3.4905
lfoot -6.52785 30.9224
ltoes 53.0664
222
root 9.04751 19.3315 7.86948 -178.052 -38.5125 -176.502
lowerback 16.6529 -2.83394 8.19769
upperback -1.75451 -1.85441 6.36481
thorax -11.4108 -1.3265 2.93556
lowerneck -10.7782 -4.17829 -5.94902
upperneck -7.72947 -5.56258 1.45892
head -0.432537 -2.91123 1.28299
rclavicle -4.65156e-014 2.8625e-014
rhumerus 7.91635 -13.3315 -22.9522
rradius 36.9569
rwrist 11.304
rhand -16.0419 -45.0124
rfingers 7.12502
rthumb 10.1598 -434.747
lclavicle -4.65156e-014 2.8625e-014
lhumerus 51.4313 -42.5771 51.1952
lradius 86.4329
lwrist 22.489
lhand -6.53701 -54.0058
lfingers 7.12502
lthumb 19.3161 -24.9451
rfemur -27.2752 33.3952 7.71885
rtibia 27.4871
rfoot 11.1445 -35.0333
rtoes 21.7864
lfemur -11.2195 -5.89869 -31.8259
ltibia 3.3828
lfoot -3.09584 30.0298
ltoes 49.7446
223
root 9.06108 19.1298 7.68443 -178.622 -39.9488 -175.833
lowerback 16.5388 -2.89355 8.58137
upperback -1.73615 -1.87665 6.73993
thorax -11.3269 -1.36298 3.14311
lowerneck -11.085 -4.09966 -5.98532
upperneck -7.80384 -5.47756 0.953684
head -0.426908 -2.87828 1.12619
rclavicle 1.03766e-013 -6.36111e-014
rhumerus 3.98077 -11.8928 -21.9675
rradius 36.1874
rwrist 12.9521
rhand -14.3622 -45.9868
rfingers 7.12502
rthumb 11.7799 -435.636
lclavicle 1.03766e-013 -6.36111e-014
lhumerus 50.9089 -46.6891 50.8746
lradius 86.5287
lwrist 20.652
lhand -5.81975 -54.1435
lfingers 7.12502
lthumb 20.0056 -25.1534
rfemur -27.8969 35.1555 6.69474
rtibia 27.5226
rfoot 11.3525 -35.65
rtoes 23.3481
lfemur -11.6722 -4.57311 -32.3481
ltibia 3.8906
lfoot -1.28461 28.5828
ltoes 47.6907
224
root 9.08082 18.9158 7.49795 -179.075 -41.4324 -175.198
lowerback 16.3491 -2.92431 8.81413
upperback -1.70516 -1.90334 7.16333
thorax -11.177 -1.39111 3.48336
lowerneck -11.6324 -4.09706 -6.19748
upperneck -7.92939 -5.48163 0.431331
head -0.393133 -2.89516 0.986591
rclavicle 1.39149e-014 4.77083e-014
rhumerus -0.253587 -10.0727 -21.0258
rradius 35.9565
rwrist 13.465
rhand -13.6376 -46.4366
rfingers 7.12502
rthumb 12.4785 -436.044
lclavicle 1.39149e-014 4.77083e-014
lhumerus 50.5758 -50.5215 50.6621
lradius 86.5105
lwrist 19.378
lhand -3.92698 -53.9418
lfingers 7.12502
lthumb 21.8241 -25.1524
rfemur -28.4707 36.0298 5.80396
rtibia 27.4846
rfoot 12.2412 -35.0597
rtoes 25.1017
lfemur -12.6488 -3.34159 -32.8922
ltibia 5.22153
lfoot 0.166074 27.1451
ltoes 43.5594
225
root 9.09969 18.691 7.31033 -179.482 -42.8785 -174.509
lowerback 15.7924 -2.98152 9.18449
upperback -1.57825 -2.00888 7.4433
thorax -10.7153 -1.46205 3.56839
lowerneck -12.3076 -3.99456 -6.37241
upperneck -7.91093 -5.32081 0.159701
head -0.290462 -2.82868 0.921856
rclavicle 4.96962e-014 -9.54166e-014
rhumerus -4.0406 -10.0135 -20.9578
rradius 35.4427
rwrist 16.6737
rhand -11.2684 -48.0197
rfingers 7.12502
rthumb 14.7619 -437.474
lclavicle 4.96962e-014 -9.54166e-014
lhumerus 50.552 -54.1571 49.9042
lradius 86.3396
lwrist 17.991
lhand -3.40047 -53.2969
lfingers 7.12502
lthumb 22.3296 -24.5672
rfemur -28.6823 34.4739 5.78426
rtibia 27.4727
rfoot 16.1228 -30.7093
rtoes 17.2236
lfemur -13.6456 -2.10446 -33.4073
ltibia 6.47395
lfoot 3.44621 26.345
ltoes 34.5489
226
root 9.1161 18.4502 7.11211 -179.845 -44.1674 -173.931
lowerback 15.4291 -2.9181 9.17331
upperback -1.6094 -1.97658 7.81449
thorax -10.5264 -1.44668 3.95871
lowerneck -13.0664 -3.83524 -6.58744
upperneck -7.48941 -5.02887 -0.171767
head -0.0492896 -2.6934 0.845218
rclavicle -2.3059e-014 -7.15625e-014
rhumerus -7.79621 -9.50902 -20.7634
rradius 34.8934
rwrist 18.6916
rhand -10.236 -48.544
rfingers 7.12502
rthumb 15.7564 -437.923
lclavicle -2.3059e-014 -7.15625e-014
lhumerus 50.0052 -57.8796 49.8031
lradius 86.1134
lwrist 16.5745
lhand -4.12416 -52.4204
lfingers 7.12502
lthumb 21.6347 -23.6091
rfemur -29.2265 36.0242 4.84661
rtibia 27.548
rfoot 16.969 -29.8998
rtoes 16.5255
lfemur -14.3816 -0.70321 -33.9846
ltibia 7.53056
lfoot 8.27402 25.4706
ltoes 21.1205
227
root 9.13614 18.2051 6.91382 -180.025 -45.4338 -173.702
lowerback 15.7 -3.27551 9.88141
upperback -2.07742 -2.20629 7.22916
thorax -11.2763 -1.60274 3.03467
lowerneck -13.2074 -3.43777 -5.95503
upperneck -6.99543 -4.49308 0.0445334
head 0.110821 -2.42121 0.823191
rclavicle 6.16232e-014 -8.42847e-014
rhumerus -12.286 -7.86982 -21.9803
rradius 34.579
rwrist 19.7652
rhand -9.55945 -48.7852
rfingers 7.12502
rthumb 16.4079 -438.111
lclavicle 6.16232e-014 -8.42847e-014
lhumerus 47.9731 -62.1108 49.4799
lradius 86.1069
lwrist 15.4718
lhand -3.79675 -52.5435
lfingers 7.12502
lthumb 21.9491 -23.7687
rfemur -29.4565 35.9119 4.30483
rtibia 27.7219
rfoot 18.8169 -26.6381
rtoes 10.517
lfemur -15.0115 0.745538 -34.7308
ltibia 8.7673
lfoot 11.7253 24.3961
ltoes 16.03
228
root 9.16042 17.9484 6.72286 -180.03 -46.7035 -173.649
lowerback 15.298 -3.29587 9.59511
upperback -2.18536 -2.32244 7.21072
thorax -11.1552 -1.63395 3.17694
lowerneck -12.8769 -3.08816 -5.85895
upperneck -7.33405 -4.07434 -0.00140555
head -0.0652509 -2.20752 0.81879
rclavicle 5.40694e-014 -9.70069e-014
rhumerus -16.3049 -6.30935 -22.4978
rradius 34.4159
rwrist 20.4257
rhand -8.20628 -49.4321
rfingers 7.12502
rthumb 17.7103 -438.646
lclavicle 5.40694e-014 -9.70069e-014
lhumerus 46.5539 -65.5782 49.8731
lradius 85.6876
lwrist 14.7064
lhand -2.17291 -53.4628
lfingers 7.12502
lthumb 23.5075 -24.8791
rfemur -29.6026 35.0667 3.88689
rtibia 28.0063
rfoot 19.7477 -23.0118
rtoes 4.88469
lfemur -15.7275 2.18427 -35.5407
ltibia 10.2617
lfoot 14.7355 22.9762
ltoes 14.549
229
root 9.18563 17.6724 6.52596 -180.239 -47.8845 -173.29
lowerback 14.8557 -3.30657 9.44026
upperback -2.29519 -2.40795 7.14524
thorax -11.0189 -1.66052 3.18273
lowerneck -12.9096 -2.69605 -5.40184
upperneck -7.26913 -3.59822 -0.216323
head -0.0650725 -1.97629 0.692822
rclavicle -6.91771e-014 3.33958e-014
rhumerus -20.4026 -4.8264 -23.4073
rradius 34.3981
rwrist 20.7835
rhand -6.3297 -50.3558
rfingers 7.12502
rthumb 19.5154 -439.396
lclavicle -6.91771e-014 3.33958e-014
lhumerus 45.101 -68.8184 50.4048
lradius 85.041
lwrist 14.4653
lhand -0.661978 -53.3443
lfingers 7.12502
lthumb 24.9562 -24.954
rfemur -29.8749 34.0629 3.89541
rtibia 28.8806
rfoot 19.4129 -20.7954
rtoes 7.15229
lfemur -16.1081 3.79535 -36.1124
ltibia 11.2442
lfoot 18.4671 21.0609
ltoes 6.78614
230
root 9.21648 17.3833 6.31997 -180.81 -49.0255 -172.66
lowerback 14.6438 -3.34196 9.32592
upperback -2.39292 -2.48659 7.03542
thorax -11.0072 -1.68782 3.1327
lowerneck -13.2267 -2.15412 -4.587
upperneck -6.88222 -2.93461 -0.542359
head 0.0755339 -1.66064 0.475362
rclavicle 1.28415e-013 -2.38542e-014
rhumerus -24.6809 -3.82892 -24.678
rradius 34.4751
rwrist 21.4413
rhand -4.49111 -50.9657
rfingers 7.12502
rthumb 21.2823 -439.817
lclavicle 1.28415e-013 -2.38542e-014
lhumerus 41.4893 -71.978 52.7095
lradius 84.4671
lwrist 13.548
lhand -0.474803 -53.2438
lfingers 7.12502
lthumb 25.1355 -24.8784
rfemur -29.9969 32.6934 4.50717
rtibia 30.0566
rfoot 19.7802 -18.0652
rtoes 9.01924
lfemur -16.3235 5.19633 -36.3284
ltibia 12.3416
lfoot 21.5933 19.5715
ltoes -3.68652
231
root 9.26097 17.0211 6.09471 -181.477 -50.2033 -172.18
lowerback 14.8126 -3.49071 9.06789
upperback -2.56329 -2.67717 6.7919
thorax -11.3032 -1.76018 3.07831
lowerneck -13.1949 -1.4785 -3.73203
upperneck -6.54739 -2.10448 -0.707143
head 0.151535 -1.25169 0.314477
rclavicle -9.24349e-014 4.92986e-014
rhumerus -28.7977 -3.1666 -26.3132
rradius 34.2997
rwrist 22.763
rhand -2.9954 -51.0541
rfingers 7.12502
rthumb 22.7184 -439.737
lclavicle -9.24349e-014 4.92986e-014
lhumerus 34.0327 -74.9314 58.283
lradius 83.9437
lwrist 12.188
lhand -1.32244 -53.6689
lfingers 7.12502
lthumb 24.3231 -25.1922
rfemur -29.9339 30.7515 5.45304
rtibia 31.3939
rfoot 20.7157 -13.972
rtoes 6.37977
lfemur -16.6045 6.82823 -36.6954
ltibia 14.1668
lfoot 24.0817 15.3609
ltoes -14.7104
232
root 9.30969 16.6858 5.85957 -182.442 -51.2183 -171.591
lowerback 14.987 -3.56581 8.33754
upperback -2.65139 -2.86599 6.60129
thorax -11.4775 -1.79643 3.33512
lowerneck -12.9727 -0.752117 -2.9304
upperneck -6.27865 -1.20551 -0.789169
head 0.184288 -0.802825 0.192594
rclavicle -5.88403e-014 5.40694e-014
rhumerus -32.8712 -2.6721 -28.0766
rradius 34.1283
rwrist 23.9571
rhand -1.14766 -51.278
rfingers 7.12502
rthumb 24.4907 -439.732
lclavicle -5.88403e-014 5.40694e-014
lhumerus 23.3565 -77.2252 67.0825
lradius 83.2728
lwrist 11.5775
lhand -1.80562 -53.4888
lfingers 7.12502
lthumb 23.8598 -24.9508
rfemur -29.3232 29.197 6.73741
rtibia 32.5144
rfoot 21.3762 -11.1063
rtoes 5.53961
lfemur -17.1621 7.54831 -36.3558
ltibia 17.0776
lfoot 24.0037 11.8319
ltoes -20.2448
